<mxfile host="app.diagrams.net" agent="Mozilla/5.0 (Windows NT 10.0; Win64; x64) AppleWebKit/537.36 (KHTML, like Gecko) Chrome/132.0.0.0 Safari/537.36 Edg/132.0.0.0" version="26.0.6">
  <diagram name="Page-1" id="c4acf3e9-155e-7222-9cf6-157b1a14988f">
    <mxGraphModel dx="-174" dy="662" grid="1" gridSize="10" guides="1" tooltips="1" connect="1" arrows="1" fold="1" page="1" pageScale="1" pageWidth="850" pageHeight="1100" background="none" math="0" shadow="0">
      <root>
        <mxCell id="0" />
        <mxCell id="1" parent="0" />
        <mxCell id="zTwoh0Io31YvO2Zmua4J-56" value="Source Files" style="swimlane;whiteSpace=wrap;html=1;" parent="1" vertex="1">
          <mxGeometry x="880" y="40" width="480" height="350" as="geometry" />
        </mxCell>
        <mxCell id="RpQdMugq_B-e_19SNzhJ-1" value="main.c" style="swimlane;fontStyle=1;align=center;verticalAlign=top;childLayout=stackLayout;horizontal=1;startSize=30;horizontalStack=0;resizeParent=1;resizeParentMax=0;resizeLast=0;collapsible=1;marginBottom=0;whiteSpace=wrap;html=1;" parent="zTwoh0Io31YvO2Zmua4J-56" vertex="1">
          <mxGeometry x="260" y="271" width="210" height="68" as="geometry" />
        </mxCell>
        <mxCell id="RpQdMugq_B-e_19SNzhJ-3" value="" style="line;strokeWidth=1;fillColor=none;align=left;verticalAlign=middle;spacingTop=-1;spacingLeft=3;spacingRight=3;rotatable=0;labelPosition=right;points=[];portConstraint=eastwest;strokeColor=inherit;" parent="RpQdMugq_B-e_19SNzhJ-1" vertex="1">
          <mxGeometry y="30" width="210" height="8" as="geometry" />
        </mxCell>
        <mxCell id="RpQdMugq_B-e_19SNzhJ-17" value="+ main(void): int" style="text;strokeColor=none;fillColor=none;align=left;verticalAlign=top;spacingLeft=4;spacingRight=4;overflow=hidden;rotatable=0;points=[[0,0.5],[1,0.5]];portConstraint=eastwest;whiteSpace=wrap;html=1;" parent="RpQdMugq_B-e_19SNzhJ-1" vertex="1">
          <mxGeometry y="38" width="210" height="30" as="geometry" />
        </mxCell>
        <mxCell id="RpQdMugq_B-e_19SNzhJ-116" value="User Interface" style="swimlane;whiteSpace=wrap;html=1;strokeColor=default;align=center;verticalAlign=top;fontFamily=Helvetica;fontSize=12;fontColor=default;fontStyle=1;fillColor=default;" parent="zTwoh0Io31YvO2Zmua4J-56" vertex="1">
          <mxGeometry x="10" y="229" width="240" height="110" as="geometry">
            <mxRectangle x="1190" y="300" width="120" height="30" as="alternateBounds" />
          </mxGeometry>
        </mxCell>
        <mxCell id="RpQdMugq_B-e_19SNzhJ-151" value="mode_utils.c" style="swimlane;fontStyle=1;align=center;verticalAlign=top;childLayout=stackLayout;horizontal=1;startSize=26;horizontalStack=0;resizeParent=1;resizeParentMax=0;resizeLast=0;collapsible=1;marginBottom=0;whiteSpace=wrap;html=1;" parent="RpQdMugq_B-e_19SNzhJ-116" vertex="1" collapsed="1">
          <mxGeometry x="10" y="70" width="82.5" height="30" as="geometry">
            <mxRectangle x="7.5" y="30" width="110" height="30" as="alternateBounds" />
          </mxGeometry>
        </mxCell>
        <mxCell id="RpQdMugq_B-e_19SNzhJ-167" style="edgeStyle=orthogonalEdgeStyle;rounded=0;orthogonalLoop=1;jettySize=auto;html=1;entryX=1;entryY=0.5;entryDx=0;entryDy=0;fontFamily=Helvetica;fontSize=12;fontColor=default;fontStyle=1;" parent="RpQdMugq_B-e_19SNzhJ-116" source="RpQdMugq_B-e_19SNzhJ-164" target="RpQdMugq_B-e_19SNzhJ-151" edge="1">
          <mxGeometry relative="1" as="geometry" />
        </mxCell>
        <mxCell id="RpQdMugq_B-e_19SNzhJ-164" value="mode_utils_asm.s" style="swimlane;fontStyle=1;align=center;verticalAlign=top;childLayout=stackLayout;horizontal=1;startSize=26;horizontalStack=0;resizeParent=1;resizeParentMax=0;resizeLast=0;collapsible=1;marginBottom=0;whiteSpace=wrap;html=1;" parent="RpQdMugq_B-e_19SNzhJ-116" vertex="1" collapsed="1">
          <mxGeometry x="112.5" y="70" width="117.5" height="30" as="geometry">
            <mxRectangle x="152.5" y="30" width="130" height="30" as="alternateBounds" />
          </mxGeometry>
        </mxCell>
        <mxCell id="LDnK3AU8ABjwF5Vrm9b2-51" value="tasks.c" style="swimlane;fontStyle=1;align=center;verticalAlign=top;childLayout=stackLayout;horizontal=1;startSize=26;horizontalStack=0;resizeParent=1;resizeParentMax=0;resizeLast=0;collapsible=1;marginBottom=0;whiteSpace=wrap;html=1;" vertex="1" collapsed="1" parent="RpQdMugq_B-e_19SNzhJ-116">
          <mxGeometry x="10" y="30" width="82.5" height="30" as="geometry">
            <mxRectangle x="7.5" y="30" width="110" height="30" as="alternateBounds" />
          </mxGeometry>
        </mxCell>
        <mxCell id="RpQdMugq_B-e_19SNzhJ-87" value="Scheduling" style="swimlane;whiteSpace=wrap;html=1;strokeColor=default;align=center;verticalAlign=top;fontFamily=Helvetica;fontSize=12;fontColor=default;fontStyle=1;fillColor=default;" parent="zTwoh0Io31YvO2Zmua4J-56" vertex="1">
          <mxGeometry x="130" y="30" width="210" height="110" as="geometry" />
        </mxCell>
        <mxCell id="RpQdMugq_B-e_19SNzhJ-79" value="sleep.c" style="swimlane;fontStyle=1;align=center;verticalAlign=top;childLayout=stackLayout;horizontal=1;startSize=26;horizontalStack=0;resizeParent=1;resizeParentMax=0;resizeLast=0;collapsible=1;marginBottom=0;whiteSpace=wrap;html=1;" parent="RpQdMugq_B-e_19SNzhJ-87" vertex="1" collapsed="1">
          <mxGeometry x="120" y="70" width="80" height="30" as="geometry">
            <mxRectangle x="135" y="40" width="80" height="34" as="alternateBounds" />
          </mxGeometry>
        </mxCell>
        <mxCell id="RpQdMugq_B-e_19SNzhJ-144" value="scheduler.c" style="swimlane;fontStyle=1;align=center;verticalAlign=top;childLayout=stackLayout;horizontal=1;startSize=26;horizontalStack=0;resizeParent=1;resizeParentMax=0;resizeLast=0;collapsible=1;marginBottom=0;whiteSpace=wrap;html=1;" parent="RpQdMugq_B-e_19SNzhJ-87" vertex="1" collapsed="1">
          <mxGeometry x="60" y="30" width="100" height="30" as="geometry">
            <mxRectangle x="15" y="40" width="100" height="34" as="alternateBounds" />
          </mxGeometry>
        </mxCell>
        <mxCell id="LDnK3AU8ABjwF5Vrm9b2-1" value="heap.c" style="swimlane;fontStyle=1;align=center;verticalAlign=top;childLayout=stackLayout;horizontal=1;startSize=26;horizontalStack=0;resizeParent=1;resizeParentMax=0;resizeLast=0;collapsible=1;marginBottom=0;whiteSpace=wrap;html=1;" vertex="1" collapsed="1" parent="RpQdMugq_B-e_19SNzhJ-87">
          <mxGeometry x="10" y="70" width="100" height="30" as="geometry">
            <mxRectangle x="15" y="40" width="100" height="34" as="alternateBounds" />
          </mxGeometry>
        </mxCell>
        <mxCell id="RpQdMugq_B-e_19SNzhJ-88" value="Synchronisation" style="swimlane;whiteSpace=wrap;html=1;strokeColor=default;align=center;verticalAlign=top;fontFamily=Helvetica;fontSize=12;fontColor=default;fontStyle=1;fillColor=default;" parent="zTwoh0Io31YvO2Zmua4J-56" vertex="1">
          <mxGeometry x="350" y="150" width="120" height="110" as="geometry">
            <mxRectangle x="490" y="80" width="130" height="30" as="alternateBounds" />
          </mxGeometry>
        </mxCell>
        <mxCell id="RpQdMugq_B-e_19SNzhJ-155" value="mutex.c" style="swimlane;fontStyle=1;align=center;verticalAlign=top;childLayout=stackLayout;horizontal=1;startSize=26;horizontalStack=0;resizeParent=1;resizeParentMax=0;resizeLast=0;collapsible=1;marginBottom=0;whiteSpace=wrap;html=1;" parent="RpQdMugq_B-e_19SNzhJ-88" vertex="1" collapsed="1">
          <mxGeometry x="15" y="30" width="90" height="30" as="geometry">
            <mxRectangle x="520" y="130" width="160" height="120" as="alternateBounds" />
          </mxGeometry>
        </mxCell>
        <mxCell id="RpQdMugq_B-e_19SNzhJ-156" value="+ typedef: type" style="text;strokeColor=none;fillColor=none;align=left;verticalAlign=top;spacingLeft=4;spacingRight=4;overflow=hidden;rotatable=0;points=[[0,0.5],[1,0.5]];portConstraint=eastwest;whiteSpace=wrap;html=1;" parent="RpQdMugq_B-e_19SNzhJ-155" vertex="1">
          <mxGeometry y="26" width="160" height="26" as="geometry" />
        </mxCell>
        <mxCell id="RpQdMugq_B-e_19SNzhJ-157" value="" style="line;strokeWidth=1;fillColor=none;align=left;verticalAlign=middle;spacingTop=-1;spacingLeft=3;spacingRight=3;rotatable=0;labelPosition=right;points=[];portConstraint=eastwest;strokeColor=inherit;" parent="RpQdMugq_B-e_19SNzhJ-155" vertex="1">
          <mxGeometry y="52" width="160" height="8" as="geometry" />
        </mxCell>
        <mxCell id="RpQdMugq_B-e_19SNzhJ-158" value="+ function(type): type" style="text;strokeColor=none;fillColor=none;align=left;verticalAlign=top;spacingLeft=4;spacingRight=4;overflow=hidden;rotatable=0;points=[[0,0.5],[1,0.5]];portConstraint=eastwest;whiteSpace=wrap;html=1;" parent="RpQdMugq_B-e_19SNzhJ-155" vertex="1">
          <mxGeometry y="60" width="160" height="26" as="geometry" />
        </mxCell>
        <mxCell id="RpQdMugq_B-e_19SNzhJ-159" value="" style="line;strokeWidth=1;fillColor=none;align=left;verticalAlign=middle;spacingTop=-1;spacingLeft=3;spacingRight=3;rotatable=0;labelPosition=right;points=[];portConstraint=eastwest;strokeColor=inherit;" parent="RpQdMugq_B-e_19SNzhJ-155" vertex="1">
          <mxGeometry y="86" width="160" height="8" as="geometry" />
        </mxCell>
        <mxCell id="RpQdMugq_B-e_19SNzhJ-160" value="+ macro: name" style="text;strokeColor=none;fillColor=none;align=left;verticalAlign=top;spacingLeft=4;spacingRight=4;overflow=hidden;rotatable=0;points=[[0,0.5],[1,0.5]];portConstraint=eastwest;whiteSpace=wrap;html=1;" parent="RpQdMugq_B-e_19SNzhJ-155" vertex="1">
          <mxGeometry y="94" width="160" height="26" as="geometry" />
        </mxCell>
        <mxCell id="LDnK3AU8ABjwF5Vrm9b2-54" value="semaphore.c" style="swimlane;fontStyle=1;align=center;verticalAlign=top;childLayout=stackLayout;horizontal=1;startSize=26;horizontalStack=0;resizeParent=1;resizeParentMax=0;resizeLast=0;collapsible=1;marginBottom=0;whiteSpace=wrap;html=1;" vertex="1" collapsed="1" parent="RpQdMugq_B-e_19SNzhJ-88">
          <mxGeometry x="15" y="70" width="90" height="30" as="geometry">
            <mxRectangle x="520" y="130" width="160" height="120" as="alternateBounds" />
          </mxGeometry>
        </mxCell>
        <mxCell id="LDnK3AU8ABjwF5Vrm9b2-55" value="+ typedef: type" style="text;strokeColor=none;fillColor=none;align=left;verticalAlign=top;spacingLeft=4;spacingRight=4;overflow=hidden;rotatable=0;points=[[0,0.5],[1,0.5]];portConstraint=eastwest;whiteSpace=wrap;html=1;" vertex="1" parent="LDnK3AU8ABjwF5Vrm9b2-54">
          <mxGeometry y="26" width="160" height="26" as="geometry" />
        </mxCell>
        <mxCell id="LDnK3AU8ABjwF5Vrm9b2-56" value="" style="line;strokeWidth=1;fillColor=none;align=left;verticalAlign=middle;spacingTop=-1;spacingLeft=3;spacingRight=3;rotatable=0;labelPosition=right;points=[];portConstraint=eastwest;strokeColor=inherit;" vertex="1" parent="LDnK3AU8ABjwF5Vrm9b2-54">
          <mxGeometry y="52" width="160" height="8" as="geometry" />
        </mxCell>
        <mxCell id="LDnK3AU8ABjwF5Vrm9b2-57" value="+ function(type): type" style="text;strokeColor=none;fillColor=none;align=left;verticalAlign=top;spacingLeft=4;spacingRight=4;overflow=hidden;rotatable=0;points=[[0,0.5],[1,0.5]];portConstraint=eastwest;whiteSpace=wrap;html=1;" vertex="1" parent="LDnK3AU8ABjwF5Vrm9b2-54">
          <mxGeometry y="60" width="160" height="26" as="geometry" />
        </mxCell>
        <mxCell id="LDnK3AU8ABjwF5Vrm9b2-58" value="" style="line;strokeWidth=1;fillColor=none;align=left;verticalAlign=middle;spacingTop=-1;spacingLeft=3;spacingRight=3;rotatable=0;labelPosition=right;points=[];portConstraint=eastwest;strokeColor=inherit;" vertex="1" parent="LDnK3AU8ABjwF5Vrm9b2-54">
          <mxGeometry y="86" width="160" height="8" as="geometry" />
        </mxCell>
        <mxCell id="LDnK3AU8ABjwF5Vrm9b2-59" value="+ macro: name" style="text;strokeColor=none;fillColor=none;align=left;verticalAlign=top;spacingLeft=4;spacingRight=4;overflow=hidden;rotatable=0;points=[[0,0.5],[1,0.5]];portConstraint=eastwest;whiteSpace=wrap;html=1;" vertex="1" parent="LDnK3AU8ABjwF5Vrm9b2-54">
          <mxGeometry y="94" width="160" height="26" as="geometry" />
        </mxCell>
        <mxCell id="LDnK3AU8ABjwF5Vrm9b2-60" value="Communication" style="swimlane;whiteSpace=wrap;html=1;strokeColor=default;align=center;verticalAlign=top;fontFamily=Helvetica;fontSize=12;fontColor=default;fontStyle=1;fillColor=default;startSize=23;" vertex="1" parent="zTwoh0Io31YvO2Zmua4J-56">
          <mxGeometry x="10" y="30" width="110" height="70" as="geometry" />
        </mxCell>
        <mxCell id="LDnK3AU8ABjwF5Vrm9b2-61" value="&lt;div&gt;queue.c&lt;/div&gt;" style="swimlane;fontStyle=1;align=center;verticalAlign=top;childLayout=stackLayout;horizontal=1;startSize=26;horizontalStack=0;resizeParent=1;resizeParentMax=0;resizeLast=0;collapsible=1;marginBottom=0;whiteSpace=wrap;html=1;" vertex="1" collapsed="1" parent="LDnK3AU8ABjwF5Vrm9b2-60">
          <mxGeometry x="10" y="30" width="90" height="30" as="geometry">
            <mxRectangle x="20" y="40" width="160" height="120" as="alternateBounds" />
          </mxGeometry>
        </mxCell>
        <mxCell id="LDnK3AU8ABjwF5Vrm9b2-62" value="+ typedef: type" style="text;strokeColor=none;fillColor=none;align=left;verticalAlign=top;spacingLeft=4;spacingRight=4;overflow=hidden;rotatable=0;points=[[0,0.5],[1,0.5]];portConstraint=eastwest;whiteSpace=wrap;html=1;" vertex="1" parent="LDnK3AU8ABjwF5Vrm9b2-61">
          <mxGeometry y="26" width="160" height="26" as="geometry" />
        </mxCell>
        <mxCell id="LDnK3AU8ABjwF5Vrm9b2-63" value="" style="line;strokeWidth=1;fillColor=none;align=left;verticalAlign=middle;spacingTop=-1;spacingLeft=3;spacingRight=3;rotatable=0;labelPosition=right;points=[];portConstraint=eastwest;strokeColor=inherit;" vertex="1" parent="LDnK3AU8ABjwF5Vrm9b2-61">
          <mxGeometry y="52" width="160" height="8" as="geometry" />
        </mxCell>
        <mxCell id="LDnK3AU8ABjwF5Vrm9b2-64" value="+ function(type): type" style="text;strokeColor=none;fillColor=none;align=left;verticalAlign=top;spacingLeft=4;spacingRight=4;overflow=hidden;rotatable=0;points=[[0,0.5],[1,0.5]];portConstraint=eastwest;whiteSpace=wrap;html=1;" vertex="1" parent="LDnK3AU8ABjwF5Vrm9b2-61">
          <mxGeometry y="60" width="160" height="26" as="geometry" />
        </mxCell>
        <mxCell id="LDnK3AU8ABjwF5Vrm9b2-65" value="" style="line;strokeWidth=1;fillColor=none;align=left;verticalAlign=middle;spacingTop=-1;spacingLeft=3;spacingRight=3;rotatable=0;labelPosition=right;points=[];portConstraint=eastwest;strokeColor=inherit;" vertex="1" parent="LDnK3AU8ABjwF5Vrm9b2-61">
          <mxGeometry y="86" width="160" height="8" as="geometry" />
        </mxCell>
        <mxCell id="LDnK3AU8ABjwF5Vrm9b2-66" value="+ macro: name" style="text;strokeColor=none;fillColor=none;align=left;verticalAlign=top;spacingLeft=4;spacingRight=4;overflow=hidden;rotatable=0;points=[[0,0.5],[1,0.5]];portConstraint=eastwest;whiteSpace=wrap;html=1;" vertex="1" parent="LDnK3AU8ABjwF5Vrm9b2-61">
          <mxGeometry y="94" width="160" height="26" as="geometry" />
        </mxCell>
        <mxCell id="RpQdMugq_B-e_19SNzhJ-129" value="System" style="swimlane;whiteSpace=wrap;html=1;strokeColor=default;align=center;verticalAlign=top;fontFamily=Helvetica;fontSize=12;fontColor=default;fontStyle=1;fillColor=default;" parent="zTwoh0Io31YvO2Zmua4J-56" vertex="1">
          <mxGeometry x="10" y="110" width="110" height="110" as="geometry" />
        </mxCell>
        <mxCell id="RpQdMugq_B-e_19SNzhJ-130" value="&lt;div&gt;&lt;span style=&quot;background-color: transparent; color: light-dark(rgb(0, 0, 0), rgb(255, 255, 255));&quot;&gt;utils.c&lt;/span&gt;&lt;/div&gt;" style="swimlane;fontStyle=1;align=center;verticalAlign=top;childLayout=stackLayout;horizontal=1;startSize=26;horizontalStack=0;resizeParent=1;resizeParentMax=0;resizeLast=0;collapsible=1;marginBottom=0;whiteSpace=wrap;html=1;" parent="RpQdMugq_B-e_19SNzhJ-129" vertex="1" collapsed="1">
          <mxGeometry x="25" y="70" width="50" height="30" as="geometry">
            <mxRectangle x="20" y="40" width="160" height="120" as="alternateBounds" />
          </mxGeometry>
        </mxCell>
        <mxCell id="RpQdMugq_B-e_19SNzhJ-131" value="+ typedef: type" style="text;strokeColor=none;fillColor=none;align=left;verticalAlign=top;spacingLeft=4;spacingRight=4;overflow=hidden;rotatable=0;points=[[0,0.5],[1,0.5]];portConstraint=eastwest;whiteSpace=wrap;html=1;" parent="RpQdMugq_B-e_19SNzhJ-130" vertex="1">
          <mxGeometry y="26" width="160" height="26" as="geometry" />
        </mxCell>
        <mxCell id="RpQdMugq_B-e_19SNzhJ-132" value="" style="line;strokeWidth=1;fillColor=none;align=left;verticalAlign=middle;spacingTop=-1;spacingLeft=3;spacingRight=3;rotatable=0;labelPosition=right;points=[];portConstraint=eastwest;strokeColor=inherit;" parent="RpQdMugq_B-e_19SNzhJ-130" vertex="1">
          <mxGeometry y="52" width="160" height="8" as="geometry" />
        </mxCell>
        <mxCell id="RpQdMugq_B-e_19SNzhJ-133" value="+ function(type): type" style="text;strokeColor=none;fillColor=none;align=left;verticalAlign=top;spacingLeft=4;spacingRight=4;overflow=hidden;rotatable=0;points=[[0,0.5],[1,0.5]];portConstraint=eastwest;whiteSpace=wrap;html=1;" parent="RpQdMugq_B-e_19SNzhJ-130" vertex="1">
          <mxGeometry y="60" width="160" height="26" as="geometry" />
        </mxCell>
        <mxCell id="RpQdMugq_B-e_19SNzhJ-134" value="" style="line;strokeWidth=1;fillColor=none;align=left;verticalAlign=middle;spacingTop=-1;spacingLeft=3;spacingRight=3;rotatable=0;labelPosition=right;points=[];portConstraint=eastwest;strokeColor=inherit;" parent="RpQdMugq_B-e_19SNzhJ-130" vertex="1">
          <mxGeometry y="86" width="160" height="8" as="geometry" />
        </mxCell>
        <mxCell id="RpQdMugq_B-e_19SNzhJ-135" value="+ macro: name" style="text;strokeColor=none;fillColor=none;align=left;verticalAlign=top;spacingLeft=4;spacingRight=4;overflow=hidden;rotatable=0;points=[[0,0.5],[1,0.5]];portConstraint=eastwest;whiteSpace=wrap;html=1;" parent="RpQdMugq_B-e_19SNzhJ-130" vertex="1">
          <mxGeometry y="94" width="160" height="26" as="geometry" />
        </mxCell>
        <mxCell id="RpQdMugq_B-e_19SNzhJ-136" value="&lt;div&gt;&lt;span style=&quot;background-color: transparent; color: light-dark(rgb(0, 0, 0), rgb(255, 255, 255));&quot;&gt;hardfault.c&lt;/span&gt;&lt;/div&gt;" style="swimlane;fontStyle=1;align=center;verticalAlign=top;childLayout=stackLayout;horizontal=1;startSize=26;horizontalStack=0;resizeParent=1;resizeParentMax=0;resizeLast=0;collapsible=1;marginBottom=0;whiteSpace=wrap;html=1;" parent="RpQdMugq_B-e_19SNzhJ-129" vertex="1" collapsed="1">
          <mxGeometry x="10" y="30" width="80" height="30" as="geometry">
            <mxRectangle x="210" y="40" width="160" height="120" as="alternateBounds" />
          </mxGeometry>
        </mxCell>
        <mxCell id="RpQdMugq_B-e_19SNzhJ-137" value="+ typedef: type" style="text;strokeColor=none;fillColor=none;align=left;verticalAlign=top;spacingLeft=4;spacingRight=4;overflow=hidden;rotatable=0;points=[[0,0.5],[1,0.5]];portConstraint=eastwest;whiteSpace=wrap;html=1;" parent="RpQdMugq_B-e_19SNzhJ-136" vertex="1">
          <mxGeometry y="26" width="160" height="26" as="geometry" />
        </mxCell>
        <mxCell id="RpQdMugq_B-e_19SNzhJ-138" value="" style="line;strokeWidth=1;fillColor=none;align=left;verticalAlign=middle;spacingTop=-1;spacingLeft=3;spacingRight=3;rotatable=0;labelPosition=right;points=[];portConstraint=eastwest;strokeColor=inherit;" parent="RpQdMugq_B-e_19SNzhJ-136" vertex="1">
          <mxGeometry y="52" width="160" height="8" as="geometry" />
        </mxCell>
        <mxCell id="RpQdMugq_B-e_19SNzhJ-139" value="+ function(type): type" style="text;strokeColor=none;fillColor=none;align=left;verticalAlign=top;spacingLeft=4;spacingRight=4;overflow=hidden;rotatable=0;points=[[0,0.5],[1,0.5]];portConstraint=eastwest;whiteSpace=wrap;html=1;" parent="RpQdMugq_B-e_19SNzhJ-136" vertex="1">
          <mxGeometry y="60" width="160" height="26" as="geometry" />
        </mxCell>
        <mxCell id="RpQdMugq_B-e_19SNzhJ-140" value="" style="line;strokeWidth=1;fillColor=none;align=left;verticalAlign=middle;spacingTop=-1;spacingLeft=3;spacingRight=3;rotatable=0;labelPosition=right;points=[];portConstraint=eastwest;strokeColor=inherit;" parent="RpQdMugq_B-e_19SNzhJ-136" vertex="1">
          <mxGeometry y="86" width="160" height="8" as="geometry" />
        </mxCell>
        <mxCell id="RpQdMugq_B-e_19SNzhJ-141" value="+ macro: name" style="text;strokeColor=none;fillColor=none;align=left;verticalAlign=top;spacingLeft=4;spacingRight=4;overflow=hidden;rotatable=0;points=[[0,0.5],[1,0.5]];portConstraint=eastwest;whiteSpace=wrap;html=1;" parent="RpQdMugq_B-e_19SNzhJ-136" vertex="1">
          <mxGeometry y="94" width="160" height="26" as="geometry" />
        </mxCell>
        <mxCell id="LDnK3AU8ABjwF5Vrm9b2-7" value="Memory Allocation" style="swimlane;whiteSpace=wrap;html=1;strokeColor=default;align=center;verticalAlign=top;fontFamily=Helvetica;fontSize=12;fontColor=default;fontStyle=1;fillColor=default;" vertex="1" parent="zTwoh0Io31YvO2Zmua4J-56">
          <mxGeometry x="350" y="30" width="120" height="110" as="geometry" />
        </mxCell>
        <mxCell id="LDnK3AU8ABjwF5Vrm9b2-8" value="&lt;div&gt;&lt;span style=&quot;background-color: transparent; color: light-dark(rgb(0, 0, 0), rgb(255, 255, 255));&quot;&gt;mempool&lt;/span&gt;&lt;span style=&quot;background-color: transparent; color: light-dark(rgb(0, 0, 0), rgb(255, 255, 255));&quot;&gt;.c&lt;/span&gt;&lt;/div&gt;" style="swimlane;fontStyle=1;align=center;verticalAlign=top;childLayout=stackLayout;horizontal=1;startSize=26;horizontalStack=0;resizeParent=1;resizeParentMax=0;resizeLast=0;collapsible=1;marginBottom=0;whiteSpace=wrap;html=1;" vertex="1" collapsed="1" parent="LDnK3AU8ABjwF5Vrm9b2-7">
          <mxGeometry x="15" y="70" width="90" height="30" as="geometry">
            <mxRectangle x="20" y="40" width="160" height="120" as="alternateBounds" />
          </mxGeometry>
        </mxCell>
        <mxCell id="LDnK3AU8ABjwF5Vrm9b2-9" value="+ typedef: type" style="text;strokeColor=none;fillColor=none;align=left;verticalAlign=top;spacingLeft=4;spacingRight=4;overflow=hidden;rotatable=0;points=[[0,0.5],[1,0.5]];portConstraint=eastwest;whiteSpace=wrap;html=1;" vertex="1" parent="LDnK3AU8ABjwF5Vrm9b2-8">
          <mxGeometry y="26" width="160" height="26" as="geometry" />
        </mxCell>
        <mxCell id="LDnK3AU8ABjwF5Vrm9b2-10" value="" style="line;strokeWidth=1;fillColor=none;align=left;verticalAlign=middle;spacingTop=-1;spacingLeft=3;spacingRight=3;rotatable=0;labelPosition=right;points=[];portConstraint=eastwest;strokeColor=inherit;" vertex="1" parent="LDnK3AU8ABjwF5Vrm9b2-8">
          <mxGeometry y="52" width="160" height="8" as="geometry" />
        </mxCell>
        <mxCell id="LDnK3AU8ABjwF5Vrm9b2-11" value="+ function(type): type" style="text;strokeColor=none;fillColor=none;align=left;verticalAlign=top;spacingLeft=4;spacingRight=4;overflow=hidden;rotatable=0;points=[[0,0.5],[1,0.5]];portConstraint=eastwest;whiteSpace=wrap;html=1;" vertex="1" parent="LDnK3AU8ABjwF5Vrm9b2-8">
          <mxGeometry y="60" width="160" height="26" as="geometry" />
        </mxCell>
        <mxCell id="LDnK3AU8ABjwF5Vrm9b2-12" value="" style="line;strokeWidth=1;fillColor=none;align=left;verticalAlign=middle;spacingTop=-1;spacingLeft=3;spacingRight=3;rotatable=0;labelPosition=right;points=[];portConstraint=eastwest;strokeColor=inherit;" vertex="1" parent="LDnK3AU8ABjwF5Vrm9b2-8">
          <mxGeometry y="86" width="160" height="8" as="geometry" />
        </mxCell>
        <mxCell id="LDnK3AU8ABjwF5Vrm9b2-13" value="+ macro: name" style="text;strokeColor=none;fillColor=none;align=left;verticalAlign=top;spacingLeft=4;spacingRight=4;overflow=hidden;rotatable=0;points=[[0,0.5],[1,0.5]];portConstraint=eastwest;whiteSpace=wrap;html=1;" vertex="1" parent="LDnK3AU8ABjwF5Vrm9b2-8">
          <mxGeometry y="94" width="160" height="26" as="geometry" />
        </mxCell>
        <mxCell id="LDnK3AU8ABjwF5Vrm9b2-14" value="&lt;div&gt;&lt;span style=&quot;background-color: transparent; color: light-dark(rgb(0, 0, 0), rgb(255, 255, 255));&quot;&gt;static_alloc.c&lt;/span&gt;&lt;/div&gt;" style="swimlane;fontStyle=1;align=center;verticalAlign=top;childLayout=stackLayout;horizontal=1;startSize=26;horizontalStack=0;resizeParent=1;resizeParentMax=0;resizeLast=0;collapsible=1;marginBottom=0;whiteSpace=wrap;html=1;" vertex="1" collapsed="1" parent="LDnK3AU8ABjwF5Vrm9b2-7">
          <mxGeometry x="15" y="30" width="90" height="30" as="geometry">
            <mxRectangle x="210" y="40" width="160" height="120" as="alternateBounds" />
          </mxGeometry>
        </mxCell>
        <mxCell id="LDnK3AU8ABjwF5Vrm9b2-15" value="+ typedef: type" style="text;strokeColor=none;fillColor=none;align=left;verticalAlign=top;spacingLeft=4;spacingRight=4;overflow=hidden;rotatable=0;points=[[0,0.5],[1,0.5]];portConstraint=eastwest;whiteSpace=wrap;html=1;" vertex="1" parent="LDnK3AU8ABjwF5Vrm9b2-14">
          <mxGeometry y="26" width="160" height="26" as="geometry" />
        </mxCell>
        <mxCell id="LDnK3AU8ABjwF5Vrm9b2-16" value="" style="line;strokeWidth=1;fillColor=none;align=left;verticalAlign=middle;spacingTop=-1;spacingLeft=3;spacingRight=3;rotatable=0;labelPosition=right;points=[];portConstraint=eastwest;strokeColor=inherit;" vertex="1" parent="LDnK3AU8ABjwF5Vrm9b2-14">
          <mxGeometry y="52" width="160" height="8" as="geometry" />
        </mxCell>
        <mxCell id="LDnK3AU8ABjwF5Vrm9b2-17" value="+ function(type): type" style="text;strokeColor=none;fillColor=none;align=left;verticalAlign=top;spacingLeft=4;spacingRight=4;overflow=hidden;rotatable=0;points=[[0,0.5],[1,0.5]];portConstraint=eastwest;whiteSpace=wrap;html=1;" vertex="1" parent="LDnK3AU8ABjwF5Vrm9b2-14">
          <mxGeometry y="60" width="160" height="26" as="geometry" />
        </mxCell>
        <mxCell id="LDnK3AU8ABjwF5Vrm9b2-18" value="" style="line;strokeWidth=1;fillColor=none;align=left;verticalAlign=middle;spacingTop=-1;spacingLeft=3;spacingRight=3;rotatable=0;labelPosition=right;points=[];portConstraint=eastwest;strokeColor=inherit;" vertex="1" parent="LDnK3AU8ABjwF5Vrm9b2-14">
          <mxGeometry y="86" width="160" height="8" as="geometry" />
        </mxCell>
        <mxCell id="LDnK3AU8ABjwF5Vrm9b2-19" value="+ macro: name" style="text;strokeColor=none;fillColor=none;align=left;verticalAlign=top;spacingLeft=4;spacingRight=4;overflow=hidden;rotatable=0;points=[[0,0.5],[1,0.5]];portConstraint=eastwest;whiteSpace=wrap;html=1;" vertex="1" parent="LDnK3AU8ABjwF5Vrm9b2-14">
          <mxGeometry y="94" width="160" height="26" as="geometry" />
        </mxCell>
        <mxCell id="RpQdMugq_B-e_19SNzhJ-101" value="Core OS" style="swimlane;whiteSpace=wrap;html=1;strokeColor=default;align=center;verticalAlign=top;fontFamily=Helvetica;fontSize=12;fontColor=default;fontStyle=1;fillColor=default;" parent="zTwoh0Io31YvO2Zmua4J-56" vertex="1">
          <mxGeometry x="130" y="150" width="210" height="70" as="geometry" />
        </mxCell>
        <mxCell id="LDnK3AU8ABjwF5Vrm9b2-74" style="edgeStyle=orthogonalEdgeStyle;rounded=0;orthogonalLoop=1;jettySize=auto;html=1;entryX=0;entryY=0.5;entryDx=0;entryDy=0;" edge="1" parent="RpQdMugq_B-e_19SNzhJ-101" source="RpQdMugq_B-e_19SNzhJ-168" target="RpQdMugq_B-e_19SNzhJ-170">
          <mxGeometry relative="1" as="geometry" />
        </mxCell>
        <mxCell id="RpQdMugq_B-e_19SNzhJ-168" value="os.c" style="swimlane;fontStyle=1;align=center;verticalAlign=top;childLayout=stackLayout;horizontal=1;startSize=26;horizontalStack=0;resizeParent=1;resizeParentMax=0;resizeLast=0;collapsible=1;marginBottom=0;whiteSpace=wrap;html=1;" parent="RpQdMugq_B-e_19SNzhJ-101" vertex="1" collapsed="1">
          <mxGeometry x="22.5" y="30" width="60" height="30" as="geometry">
            <mxRectangle x="10" y="125" width="65" height="34" as="alternateBounds" />
          </mxGeometry>
        </mxCell>
        <mxCell id="LDnK3AU8ABjwF5Vrm9b2-73" style="edgeStyle=orthogonalEdgeStyle;rounded=0;orthogonalLoop=1;jettySize=auto;html=1;entryX=1;entryY=0.5;entryDx=0;entryDy=0;" edge="1" parent="RpQdMugq_B-e_19SNzhJ-101" source="RpQdMugq_B-e_19SNzhJ-170" target="RpQdMugq_B-e_19SNzhJ-168">
          <mxGeometry relative="1" as="geometry" />
        </mxCell>
        <mxCell id="RpQdMugq_B-e_19SNzhJ-170" value="os_asm.s" style="swimlane;fontStyle=1;align=center;verticalAlign=top;childLayout=stackLayout;horizontal=1;startSize=27;horizontalStack=0;resizeParent=1;resizeParentMax=0;resizeLast=0;collapsible=1;marginBottom=0;whiteSpace=wrap;html=1;" parent="RpQdMugq_B-e_19SNzhJ-101" vertex="1" collapsed="1">
          <mxGeometry x="122.5" y="30" width="65" height="30" as="geometry">
            <mxRectangle x="10" y="33" width="65" height="37" as="alternateBounds" />
          </mxGeometry>
        </mxCell>
      </root>
    </mxGraphModel>
  </diagram>
</mxfile>
